<svg id="logobar-A-mobile-LRG-approved.svg" xmlns="http://www.w3.org/2000/svg" width="516.6" height="91" viewBox="-47 351 516.6 91"><style>.st0,.st1{fill:#b2b2b2}.st1{fill-rule:evenodd;clip-rule:evenodd}</style><path id="logo-dropbox.svg" class="st0" d="M383.5 356.5h5.8c5 0 8.1 3.2 8.1 8.1 0 4.9-3.1 8.1-8.1 8.1h-5.8v-16.2zm5.6 13.2c3.1 0 4.8-2 4.8-5.1 0-3.2-1.7-5.1-4.8-5.1h-2.3v10.2h2.3zm17-5.5c-.5-.3-1.1-.4-1.7-.4-1.1-.1-2 .6-2.3 1.7v7.3h-3.3V361h3.3v1.2c.6-.9 1.6-1.4 2.7-1.4.4 0 .8.1 1.2.2l.1 3.2zm6.6 8.8c-3.5 0-5.9-2.5-5.9-6.1 0-3.6 2.4-6.2 5.9-6.2s5.8 2.5 5.8 6.2c.1 3.5-2.3 6.1-5.8 6.1zm0-9.6c-1.7 0-2.6 1.4-2.6 3.4 0 1.9.9 3.4 2.6 3.4s2.6-1.4 2.6-3.4c0-1.9-.9-3.4-2.6-3.4zm10.6 13.6H420v-16.1h3.3v1c.8-.8 1.9-1.2 3-1.2 3.5 0 5.4 2.8 5.4 6.2 0 3.3-2 6.1-5.4 6.1-1.1 0-2.2-.4-3-1.2v5.2zm0-8.2c.4.8 1.3 1.4 2.2 1.4 1.8 0 2.9-1.4 2.9-3.3s-1.1-3.3-2.9-3.3c-.9 0-1.8.5-2.2 1.4v3.8zm13.2 3.9h-3.3v-17.1h3.3v6.3c.8-.8 1.9-1.2 3-1.2 3.5 0 5.4 2.8 5.4 6.2 0 3.4-2 6.1-5.4 6.1-1.1 0-2.2-.4-3-1.2v.9zm0-3.9c.4.9 1.3 1.4 2.2 1.4 1.8 0 2.9-1.4 2.9-3.3s-1.1-3.3-2.9-3.3c-.9 0-1.8.5-2.2 1.4v3.8zm15.4 4.2c-3.5 0-5.9-2.5-5.9-6.1 0-3.6 2.4-6.2 5.9-6.2s5.8 2.5 5.8 6.2c.1 3.6-2.3 6.1-5.8 6.1zm0-9.5c-1.7 0-2.6 1.4-2.6 3.4 0 1.9.9 3.4 2.6 3.4s2.6-1.4 2.6-3.4-.9-3.4-2.6-3.4zm13.3 3.1l4.3 6.1h-3.7l-2.6-3.7-2.6 3.7h-3.5l4.3-6-4-5.8h3.7l2.3 3.3 2.3-3.3h3.5l-4 5.7zM358.6 351l-8.6 5.5 6 4.7 8.7-5.3-6.1-4.9zm-8.6 14.9l8.6 5.6 6-4.9-8.7-5.3-5.9 4.6zm14.6.6l6 4.9 8.6-5.5-5.9-4.7-8.7 5.3zm14.6-10l-8.6-5.5-6 4.9 8.7 5.3 5.9-4.7zm-14.6 11.1l-6 4.9-2.6-1.7v1.9l8.6 5.1 8.6-5.1v-1.9l-2.6 1.7-6-4.9z"/><path id="logo-airbnb.svg" class="st0" d="M219.5 358.7c0 1.1-.9 1.9-2 1.9-1 0-1.9-.9-1.9-1.9 0-1 .8-1.9 1.9-1.9h.1c1 0 1.9.9 1.9 1.9zm-8 3.9v.5c-.7-.8-1.8-1.2-2.9-1.2-3.2 0-5.8 2.6-5.8 5.8s2.6 5.8 5.8 5.8c1.1.1 2.2-.4 2.9-1.2v.5c0 .2.2.4.4.4h2.4v-11.1H212c-.3.1-.5.3-.5.5zm0 7.1c-.6.8-1.5 1.2-2.4 1.2-1.8.1-3.3-1.3-3.4-3s1.3-3.3 3-3.4h.3c.9 0 1.8.5 2.4 1.2v4zm4.7-7.5h2.9v11.1h-2.9v-11.1zm42.7-.3c-1.1 0-2.1.4-2.9 1.2v-6.2h-2.9v16.4h2.4c.2 0 .4-.2.4-.4v-.5c.7.8 1.8 1.3 2.9 1.2 3.2 0 5.8-2.6 5.9-5.8 0-3.3-2.6-5.9-5.8-5.9zm-.5 9c-1 0-1.9-.4-2.4-1.2v-4c.6-.7 1.5-1.2 2.4-1.2 1.8-.1 3.3 1.2 3.4 3s-1.2 3.3-3 3.4h-.4zm-6.7-4.2v6.6h-2.9V367c0-1.8-.6-2.6-2.2-2.6-.9 0-1.7.4-2.3 1.1v7.7h-2.9v-11.1h2.3c.2 0 .4.2.4.4v.5c.8-.8 1.9-1.2 3-1.2s2.3.3 3.1 1.1c1.1.9 1.5 2 1.5 3.8zm-17.2-4.8c-1.1 0-2.1.4-2.9 1.2v-6.2h-2.9v16.4h2.4c.2 0 .4-.2.4-.4v-.5c.7.8 1.8 1.3 2.9 1.2 3.2 0 5.8-2.6 5.9-5.8 0-3.3-2.6-5.9-5.8-5.9zm-.5 9c-1 0-1.9-.4-2.4-1.2v-4c.6-.7 1.5-1.2 2.4-1.2 1.8-.1 3.3 1.2 3.4 3s-1.2 3.3-3 3.4h-.4zm-7.8-9c.4 0 .9 0 1.3.1v2.6c-1.4-.4-2.8-.1-3.9.9v7.8h-2.9v-11.1h2.4c.2 0 .4.2.4.4v.5c.8-.7 1.7-1.1 2.7-1.2zm-29.7 10.4c-.1-.4-.3-.7-.4-1.1-.2-.5-.5-1-.7-1.5-2.1-4.5-4.3-8.9-6.6-13.3l-.1-.2c-.2-.5-.5-.9-.7-1.4-.3-.6-.7-1.1-1.1-1.6-.9-1.2-2.3-1.8-3.8-1.8s-2.9.6-3.8 1.8c-.4.5-.8 1-1.1 1.6-.2.5-.5.9-.7 1.4l-.1.2c-2.3 4.4-4.5 8.9-6.6 13.3v.1c-.2.5-.4 1-.7 1.5-.1.3-.3.7-.4 1.1-.4 1-.5 2.1-.4 3.2.3 2.2 1.8 4.1 3.9 4.9.8.3 1.6.5 2.4.5.3 0 .5 0 .8-.1 1.1-.1 2.1-.5 3-1 1.4-.8 2.6-1.9 3.7-3.1 1.1 1.2 2.3 2.2 3.7 3.1.9.5 1.9.9 3 1 .3 0 .5.1.8.1.8 0 1.7-.2 2.4-.5 2.1-.8 3.5-2.7 3.9-4.9.1-1.2 0-2.3-.4-3.3zm-13.4 1.5c-1.4-1.6-2.4-3.5-3-5.5-.1-.6-.2-1.2-.1-1.8.1-.4.2-.9.5-1.2.6-.8 1.6-1.3 2.6-1.3s2 .4 2.6 1.3c.3.4.4.8.5 1.2.1.6.1 1.2-.1 1.8-.6 2-1.6 3.9-3 5.5zm11.9 1.4c-.2 1.6-1.3 2.9-2.7 3.5-.7.3-1.5.4-2.3.3-.8-.1-1.6-.4-2.3-.8-1.3-.8-2.4-1.7-3.4-2.9 1.7-1.9 2.9-4.1 3.6-6.5.2-.8.2-1.7.1-2.5-.1-.7-.4-1.4-.8-2-1-1.3-2.5-2.1-4.2-2.1-1.7 0-3.2.8-4.2 2.1-.4.6-.7 1.3-.8 2-.1.8-.1 1.7.1 2.5.7 2.4 1.9 4.7 3.6 6.5-1 1.1-2.1 2.1-3.4 2.9-.7.4-1.5.7-2.3.8-.8.1-1.5 0-2.3-.3-1.5-.6-2.5-1.9-2.7-3.5-.1-.8 0-1.6.3-2.3.1-.3.2-.6.4-.9.2-.5.4-1 .7-1.5v-.1c2.1-4.5 4.3-8.9 6.6-13.2l.1-.2c.2-.4.5-.9.7-1.4.2-.5.5-.9.8-1.3 1.1-1.3 3.1-1.5 4.4-.3l.3.3c.3.4.6.8.8 1.3.2.4.5.9.7 1.4l.1.2c2.3 4.4 4.4 8.8 6.5 13.3.2.5.4 1 .7 1.5.1.4.3.6.4.9.5.8.6 1.5.5 2.3z"/><path id="logo-zendesk.svg" class="st0" d="M77.3 421.8c-1.2.7-2.5 1-3.9 1-.8 0-1.6-.1-2.4-.4-1.1.9-2.2 1.7-3.5 2.4 1.1 1.6 2.7 2.8 4.7 3.3.6.2 1.3.3 1.9.3 1.3 0 2.6-.3 3.8-.9.2-.6.3-1.3.3-1.9.1-1.4-.2-2.7-.9-3.8zm-1.3-9.4c-.1 0-.2-.1-.3-.1.2 0 .2.1.3.1zm-.2 0c-.2 1.4-.8 2.8-1.8 3.9.1.3.1.6.1.8-.1 1.7-.8 3.3-2.1 4.6.3 0 .7.1 1 .1 1.7 0 3.4-.6 4.8-1.6 1.5-1.2 2.6-2.9 2.9-4.8-1.1-1.4-2.7-2.5-4.5-2.9-.3-.1-.3-.2-.4-.1zm-1.2-1.3c0-1.9-.7-3.8-2.1-5.2h-.1c-1.8 0-3.6.7-4.9 1.9 1.3 1.4 2 3.3 1.9 5.1v.4c.3-.1.6-.1.9-.1h.1c1.3 0 2.4.6 3.1 1.7.7-1.1 1-2.4 1.1-3.8zM60.7 406h-.3c-1.3 1.4-2 3.2-2 5.1v.1h.3c2 0 4 .7 5.4 2.1 1.2.1 2.3.8 2.9 1.9.3-.6.8-1.1 1.4-1.4v-.3c0-2.2-.9-4.2-2.6-5.7-1.4-1.1-3.3-1.8-5.1-1.8zm2.1 7.4c-1.2-.7-2.5-1-3.9-1-.5 0-.9 0-1.4.1-1.9.3-3.7 1.4-4.8 3 .3 1.9 1.4 3.6 2.9 4.7 1.1-1.5 2.7-2.5 4.5-2.8v-.3c-.2-1.8 1-3.3 2.7-3.7zm-6.7 8.4c-.6 1.1-.9 2.3-.9 3.5 0 .7.1 1.4.3 2 1.1.6 2.4.9 3.7.9.6 0 1.3-.1 1.9-.3-.2-.7-.3-1.3-.3-2 0-1.6.5-3.2 1.5-4.5-.9-.9-1.6-2.1-2-3.3-1.8.8-3.3 2-4.2 3.7zm6.5 7zm4.1 3.9c1.8-.8 3.2-2.1 4-3.9-1.9-.7-3.4-2.2-4.1-4.1-1.3-.7-2.6-1.5-3.7-2.5-.5 1.1-.8 2.3-.9 3.5 0 1.1.2 2.1.7 3 .7 1.9 2.2 3.3 4 4zm24.9-9.1l-6.7 7.8h5.8c.6 0 1.1.4 1.2 1s-.4 1.1-1 1.2h-8.6c-.7 0-1.2-.6-1.1-1.3 0-.3.1-.6.3-.8l6.7-7.8h-5.9c-.6 0-1.1-.4-1.2-1s.4-1.1 1-1.2h8.4c.7 0 1.3.5 1.3 1.2v.1c.1.3 0 .6-.2.8zm13.5 4.8h-8.8c.2 1.9 1.8 3.3 3.7 3.2 1.4 0 2.7-.6 3.7-1.5.2-.2.4-.3.7-.3.3 0 .7.2.9.4.2.2.3.4.3.7 0 .4-.2.7-.4.9-1.4 1.4-3.2 2.1-5.2 2.1-3.5 0-6.4-2.8-6.5-6.3 0-3.5 2.8-6.3 6.3-6.3h.1c3.4-.1 6.2 2.6 6.2 6v.3c-.1.5-.5.8-1 .8zm-5.2-4.9c-1.8-.1-3.3 1.3-3.5 3h7c-.2-1.7-1.7-3-3.5-3zm34.2 10.3c-.7 0-1.4-.6-1.4-1.3v-.7c-.9 1.4-2.4 2.2-4.1 2.1-3.5-.1-6.2-3-6.1-6.5.1-3.3 2.8-6 6.1-6.1 1.6-.1 3.2.7 4.1 2.1v-7.2c0-.8.6-1.4 1.4-1.4.8 0 1.4.6 1.4 1.4v16.3c-.1.7-.7 1.3-1.4 1.3zm-5.1-10.2c-2.2.1-3.8 2-3.7 4.2.1 2 1.7 3.6 3.7 3.7 2.2-.2 3.8-2.1 3.7-4.3-.2-1.9-1.8-3.5-3.7-3.6zm20.6 4.8h-8.8c.2 1.9 1.8 3.3 3.7 3.2 1.4 0 2.7-.6 3.7-1.5.2-.2.4-.3.7-.3.4 0 .7.2 1 .4.2.2.3.4.3.7 0 .4-.2.7-.4.9-1.4 1.4-3.2 2.1-5.2 2.1-3.5 0-6.4-2.8-6.5-6.3 0-3.5 2.8-6.3 6.3-6.3h.1c3.4-.1 6.2 2.6 6.2 6v.3c-.2.5-.6.8-1.1.8zm-5.3-4.9c-1.8-.1-3.3 1.3-3.5 3h7c-.1-1.7-1.7-3-3.5-3zm13.3 10.4c-1.6 0-3.2-.4-4.6-1.2-.4-.2-.6-.6-.7-1 0-.2.1-.3.1-.4.1-.4.5-.6.9-.7.2 0 .4.1.6.2 1 .6 2.2 1 3.5 1 1.4 0 2.9-.4 2.9-1.4 0-.8-.8-1.1-3.6-2.1-2.4-.8-3.6-1.9-3.6-3.5 0-2 2.1-3.4 4.8-3.4 1.5 0 2.9.3 4.2.9.4.1.7.5.8 1 0 .1 0 .3-.1.4-.2.4-.6.7-1 .8-.1 0-.3 0-.4-.1-1-.5-2.1-.8-3.3-.8-1.5 0-2.4.3-2.4 1.2 0 .9.8 1.1 2.9 1.8 2.6.8 4.4 1.7 4.4 3.8-.1 1.8-2 3.5-5.4 3.5zm18-.1c-.4 0-.8-.2-1-.4l-4.7-5.2-1.4 1.1v3.2c0 .8-.6 1.4-1.4 1.4-.8 0-1.4-.6-1.4-1.4v-16.2c0-.8.6-1.4 1.4-1.4.8 0 1.4.6 1.4 1.4v9.9l5.9-4.5c.2-.2.5-.2.8-.3.4 0 .8.2 1 .5.2.2.3.5.3.8 0 .4-.2.8-.5 1l-4 3 4.6 5.1c.2.2.3.5.3.8-.1.7-.7 1.1-1.3 1.2zm-61.2-12.7c-3.2-.1-5.8 2.5-5.9 5.6v5.8c0 .8.6 1.4 1.4 1.4.8 0 1.4-.6 1.4-1.4V427c0-1.9 1-3.4 3.1-3.4 1.7 0 3.1 1.4 3.1 3.1V432.6c0 .8.6 1.4 1.4 1.4.8 0 1.4-.6 1.4-1.4v-5.7c-.1-3.2-2.7-5.8-5.9-5.8zm59.4-4.9c0-.8.6-1.4 1.4-1.4s1.4.6 1.4 1.4c0 .8-.6 1.4-1.4 1.4-.8-.1-1.4-.7-1.4-1.4zm2.4 0c0-.6-.5-1-1-1-.6 0-1 .5-1 1 0 .6.5 1 1 1 .6 0 1-.5 1-1zm-1.6.5v-1.2c0-.1.1-.2.2-.2h.5c.2 0 .5.1.5.3v.1c0 .2-.1.3-.3.4l.2.4v.1c0 .1-.1.2-.2.2s-.1 0-.2-.1l-.3-.4h-.3v.3c0 .1-.1.2-.2.2.1.1.1 0 .1-.1zm.8-.8c0-.1-.1-.2-.3-.2h-.3v.3h.3c.3.1.3 0 .3-.1z"/><path id="logo-juniper_networks.svg" class="st0" d="M319.1 437h.6l3 4.1V437h.5v4.9h-.5l-3-4.2v4.2h-.5V437zm5.3 0h3.3v.5H325v1.6h2.7v.5H325v1.8h2.8v.5h-3.3l-.1-4.9zm6 .5h-1.9v-.5h4.2v.5h-1.9v4.4h-.5l.1-4.4zm3-.5h.5l1.3 4.1 1.3-4.1h.4l1.3 4.1 1.3-4.1h.5l-1.6 5h-.4l-1.3-4.1-1.3 4.1h-.4l-1.6-5zm7.2 2.5c0-1.4 1.2-2.5 2.5-2.4s2.5 1.2 2.4 2.5c0 1.4-1.1 2.4-2.5 2.4-1.2.2-2.3-.7-2.5-1.9.1-.2.1-.4.1-.6m4.5 0c-.1-1.1-1-1.9-2.1-1.9-1.1.1-1.9 1-1.9 2.1 0 1 .9 1.9 2 1.9 1 .1 1.9-.6 2-1.5v-.6m3.6.4h-1.5v2h-.5V437h2.1c1.1 0 1.7.5 1.7 1.4.1.7-.4 1.4-1.2 1.5h-.1l1.2 2h-.6l-1.1-2zm.1-.5c.5.1 1-.2 1.1-.7v-.3c0-.8-.4-1-1.2-1h-1.6v2h1.7zm4.3-.1l-1 1.1v1.5h-.5V437h.5v2.7l2.5-2.7h.6l-1.8 1.9 2 3h-.6l-1.7-2.6zm2.8 2.1l.3-.4c.5.3 1.1.5 1.8.5 1 0 1.5-.3 1.5-1s-.6-.8-1.5-1c-1.1-.2-1.8-.4-1.8-1.4 0-1 .6-1.3 1.8-1.3.6 0 1.2.1 1.7.4l-.3.4c-.4-.3-.9-.4-1.4-.4-.9 0-1.3.2-1.3.8 0 .6.5.7 1.4.9 1.1.2 1.9.4 1.9 1.4 0 1-.6 1.5-2 1.5-.8.2-1.5 0-2.1-.4m9.2-24.8c-6.9 0-7.2 3.1-7.2 7.5v10.8h1.6v-10.8c0-3.3-.1-5.9 5.6-5.9.6 0 1.1 0 1.7.1v-1.6c-.6-.1-1.2-.1-1.7-.1M284 427.9V417h1.7v10.9c0 3.1 0 5.8 5.7 5.8s5.6-2.6 5.6-5.9V417h1.6v10.8c0 4.4-.3 7.5-7.2 7.5-6.9-.1-7.4-3.2-7.4-7.4m32.1-3.9v10.9h-1.7V424c0-3.1 0-5.8-5.7-5.8s-5.6 2.6-5.6 5.9v10.8h-1.6v-10.8c0-4.4.3-7.5 7.2-7.5 7 0 7.4 3.1 7.4 7.4m3-7h1.6v17.8h-1.6V417zm4.7 0h8.4c4.2 0 6 2.1 6 5.7 0 3.7-1.9 5.9-6.1 5.9h-6.8v6.2h-1.6l.1-17.8zm8.4 10c2.9 0 4.3-1.4 4.3-4.2s-1.6-4.2-4.4-4.2h-6.7v8.4h6.8zm7.8-1.1c0-5.3 1.5-9.3 8.3-9.3 7 0 7.2 4.7 7.2 9.6h-13.8c0 4.3 1.1 7.6 6.8 7.6 2.1.1 4.2-.6 5.9-1.9l.9 1.2c-1.9 1.5-4.3 2.2-6.8 2.2-7.2-.1-8.5-4.2-8.5-9.4m1.7-1.2h12.2c-.2-3.6-.4-6.6-5.6-6.6-5.1 0-6.4 2.7-6.6 6.6m-67.7 14c6.9 0 7.2-3.1 7.2-7.5V417h-1.6v14.3c0 3.3.1 5.9-5.6 5.9h-.6v1.5h.6m89.1-3.8c-.6 0-1.1-.5-1.1-1.1 0-.6.5-1.1 1.1-1.1.6 0 1.1.5 1.1 1.1 0 .6-.5 1.1-1.1 1.1m0-2.1c-.5 0-1 .4-1 1s.4 1 1 1 1-.4 1-1c-.1-.5-.5-1-1-1m0 1.2h-.4v.5h-.2v-1.3h.6c.2 0 .4.1.4.3v.1c0 .2-.1.4-.3.4l.3.5h-.2l-.2-.5zm.1-.2c.1 0 .2 0 .3-.2v-.1c0-.2-.1-.2-.3-.2h-.4v.5h.4z"/><path class="st0" d="M-16.4 355.7l1.8.4c.2 0 .3.2.3.4v16.1c0 .2-.2.4-.4.4h-1.8c-.2 0-.4-.2-.4-.4v-16.5c0-.3.3-.5.5-.4zM-1 365.5v7c0 .2-.2.4-.4.4h-1.7c-.2 0-.4-.2-.4-.4v-7.2c0-1.7-1.1-2.7-2.5-2.7-1.6 0-2.7 1.2-2.7 2.9v7c0 .2-.2.4-.4.4h-1.8c-.2 0-.4-.2-.4-.4V361c0-.2.2-.4.4-.4h1.7c.2 0 .4.2.4.4v1.2c.5-1 1.8-1.9 3.5-1.9 3.2 0 4.3 2.5 4.3 5.2zM2 369.8c.2-.1.4-.1.6.1.6.7 1.4 1.3 2.7 1.3 1.1 0 1.9-.5 1.9-1.5 0-2.4-6-1.5-6-5.8 0-2.2 1.8-3.5 4.2-3.5 2.1 0 3.3 1.1 3.8 2 .1.2.1.4-.1.6l-1.1.5c-.2.1-.4.1-.5-.1-.4-.5-1-1.1-2.2-1.1-.9 0-1.7.5-1.7 1.3 0 2.4 6 1.4 6 5.7 0 2.3-1.9 3.8-4.5 3.8-2.3 0-3.6-1.1-4.3-2.1-.1-.2-.1-.4.1-.5l1.1-.7zM12.5 358.1l1.7.4c.2 0 .3.2.3.4v1.7h2.1c.2 0 .4.2.4.4v1.3c0 .2-.2.4-.4.4h-2.1v5.7c0 1.9.7 2.3 2.1 2.3h.2c.3 0 .3.3.3.3v1.5c0 .2-.2.4-.4.4h-.9c-3 0-3.9-2-3.9-5v-5.3h-1c-.2 0-.4-.2-.4-.4V361c0-.2.2-.4.4-.4h1v-2.1c.1-.2.4-.4.6-.4zM23.4 365.1c1.4 0 2.5.5 3 .9v-1.2c0-1.4-1-2.3-2.6-2.3-1.2 0-2.3.4-3.1.8-.2.1-.4 0-.5-.2l-.6-1.1c-.1-.2 0-.4.2-.5 1-.6 2.5-1.2 4.4-1.2 3.7 0 4.9 2 4.9 4.7v7.6c0 .2-.2.4-.4.4H27c-.2 0-.4-.1-.4-.3l-.1-.6c-.6.7-1.6 1.2-3.2 1.2-2.6 0-4.7-1.6-4.7-4.1 0-2.5 2-4.1 4.8-4.1zm.4 6.1c1.5 0 2.6-.9 2.6-2.1 0-1.3-1.1-2.1-2.6-2.1-1.6 0-2.6.9-2.6 2.1 0 1.2 1.1 2.1 2.6 2.1zM31.9 360.7l1.6.3c.2 0 .3.2.3.4v.8c.3-.4 1.6-1.9 4-1.9 3.5 0 6 2.7 6 6.5s-2.3 6.5-5.9 6.5c-2.3 0-3.7-1.4-4-1.9v6.3c0 .2-.2.4-.4.4h-1.8c-.2 0-.4-.2-.4-.4v-16.6c.1-.3.3-.5.6-.4zm5.7 10.3c2.2 0 3.7-1.7 3.7-4.2s-1.6-4.2-3.7-4.2c-2.3 0-3.7 1.9-3.7 4.2 0 2.6 1.6 4.2 3.7 4.2zM50.2 365.1c1.4 0 2.5.5 3 .9v-1.2c0-1.4-1-2.3-2.6-2.3-1.2 0-2.3.4-3.1.8-.2.1-.4 0-.5-.2l-.6-1.1c-.1-.2 0-.4.2-.5 1-.6 2.5-1.2 4.4-1.2 3.7 0 4.9 2 4.9 4.7v7.6c0 .2-.2.4-.4.4H54c-.2 0-.4-.1-.4-.3l-.1-.6c-.6.7-1.6 1.2-3.2 1.2-2.6 0-4.7-1.6-4.7-4.1-.2-2.5 1.7-4.1 4.6-4.1zm.4 6.1c1.5 0 2.6-.9 2.6-2.1 0-1.3-1.1-2.1-2.6-2.1-1.6 0-2.6.9-2.6 2.1 0 1.2 1 2.1 2.6 2.1zM60 375.3c.1-.2.3-.3.5-.2.7.3 1.9.8 3.2.8 2.1 0 3.9-1.3 3.9-3.7v-.8c-.3.4-1.5 1.9-4 1.9-3.5 0-5.9-2.7-5.9-6.5s2.5-6.5 6-6.5c2.3 0 3.6 1.4 4 2v-1.2c0-.3.2-.4.5-.4l1.6.3c.2 0 .3.2.3.4v9.9c0 4.6-2.8 6.8-6.4 6.8-1.5 0-3-.4-4.1-1-.2-.1-.3-.3-.2-.5l.6-1.3zm4.1-12.7c-2.1 0-3.7 1.7-3.7 4.2s1.6 4.2 3.7 4.2c2.2 0 3.7-1.8 3.7-4.2-.1-2.6-1.6-4.2-3.7-4.2zM78 360.3c3.7 0 5.9 2.6 5.9 6.5v.2c0 .2-.2.4-.4.4h-8.9c0 2.2 1.6 3.6 3.8 3.6 1.6 0 2.6-.8 3.2-1.4.1-.2.4-.2.6-.1l1.1.8c.2.1.2.4.1.6-.7 1-2.3 2.4-4.9 2.4-3.9 0-6.4-2.7-6.4-6.4-.1-3.9 2.6-6.6 5.9-6.6zm3.4 5.3c-.1-2-1.5-3.2-3.3-3.2-1.8 0-3.1 1.2-3.3 3.2h6.6zM-41.1 375.3v-21.7c0-.2-.1-.4-.3-.4l-1.3-.2c-.2 0-.5.2-.5.4v22.1c0 .2.2.4.5.4l1.3-.2c.2 0 .3-.2.3-.4zM-44.9 373.3v-17.7c0-.2-.2-.4-.4-.4l-1.3-.1c-.2 0-.4.2-.4.4v18c0 .2.2.4.5.4l1.3-.1c.2-.2.3-.3.3-.5z"/><path class="st1" d="M-22.2 353.7l-16.7-2.7c-.2 0-.5.1-.5.4v26.3c0 .3.2.4.5.4l16.7-3c.2 0 .3-.2.3-.4v-20.6c0-.2-.1-.3-.3-.4zm-1.8 19.2c0 .2-.1.4-.3.4l-11.8 1.7c-.2 0-.5-.2-.5-.4v-19.7c0-.2.2-.4.5-.4l11.8 1.5c.2 0 .4.2.4.4v16.5z"/></svg>